# xmcd
#
# Track frame offsets: 
#        150
#        9720
#        22076
#        37330
#        48516
#        63157
#        75346
#        86309
#        98275
#        107677
#        119476
#        129268
#        140844
#        155708
#        172243
#        183652
#        198516
#
# Disc length: 2785 seconds
#
# Revision: 0
# Processed by: cddbd v1.5.2PL0 Copyright (c) Steve Scherf et al.
# Submitted via: ExactAudioCopyFreeDBPlugin 1.0
#
DISCID=e90adf11
DTITLE=Leo Fontaine - Favorites II
DYEAR=2006
DGENRE=Country
TTITLE0=The Blue Ranger (Hank Snow)
TTITLE1=Rose of San Antone (Bob Wills)
TTITLE2=All I Have To Offer You (Charlie Pride)
TTITLE3=The Farmer Has Moved Into Town (Charlie Moore)
TTITLE4=Have I Stayed Away Too Long (Doc Williams)
TTITLE5=I Can't Tell My Heart That (Johnny And Jack)
TTITLE6=Why Would We Try Anymore (Hank Williams)
TTITLE7=Have I Told You Lately That I Love You (Scotty Wiseman)
TTITLE8=That Old Book of Mine (Curly Sechler)
TTITLE9=You're The Only Good Thing That Happened To Me (George Morgan)
TTITLE10=If We Can't Be Sweethearts (Wilf Carter)
TTITLE11=Darlin' I'll Always Love You (Hank Snow)
TTITLE12=Just When I Needed You (Johnny Wright, Jack Anglin, Clyde Bau
TTITLE12=m)
TTITLE13=You'll Regret Those Words My Darlin' (Hank Snow)
TTITLE14=The Far Side Banks of Jordan (Terry Smith)
TTITLE15=I Can't Stop Loving You (Hank Gibson)
TTITLE16=Bowing The Strings
EXTD=
EXTT0=
EXTT1=
EXTT2=
EXTT3=
EXTT4=
EXTT5=
EXTT6=
EXTT7=
EXTT8=
EXTT9=
EXTT10=
EXTT11=
EXTT12=
EXTT13=
EXTT14=
EXTT15=
EXTT16=
PLAYORDER=
